<?xml version="1.0" encoding="utf-8"?>
<svg version="1.1" id="Layer_1" xmlns="http://www.w3.org/2000/svg" xmlns:xlink="http://www.w3.org/1999/xlink" x="0px" y="0px"
	 viewBox="0 0 260 260" style="enable-background:new 0 0 260 260;" xml:space="preserve">
<path class="st0" d="M131,64.3l29.8,17.8c20.8,12.5,47.2-2.5,47.2-26.8v0L131,8.3V64.3z"/>
<path class="st0" d="M131,196.8l-29.4-17.9C80.7,166.2,54,181.3,54,205.7v0l77,47.1V196.8z"/>
<path class="st1" d="M131,64.3v-56L54,55.4v0C54,80,80.9,95,101.8,82.2L131,64.3z"/>
<path class="st2" d="M131,64.2v-56L54,55.3v0c0,24.5,26.9,39.6,47.8,26.8L131,64.2z"/>
<polygon class="st0" points="131,102.6 54,55.4 54,111.5 131,158.6 208,205.7 208,149.7 "/>
<polygon class="st3" points="131,196.8 131,252.8 208,205.7 208,149.7 "/>
<polygon class="st2" points="131,196.8 131,252.8 208,205.7 208,149.7 "/>
</svg>
